<?xml version="1.0" encoding="UTF-8"?>
<svg width="246px" height="54px" viewBox="0 0 246 54" version="1.1" xmlns="http://www.w3.org/2000/svg" xmlns:xlink="http://www.w3.org/1999/xlink">
    <!-- Generator: Sketch 42 (36781) - http://www.bohemiancoding.com/sketch -->
    <title>yodaComVector</title>
    <desc>Created with Sketch.</desc>
    <defs></defs>
    <g id="Page-1" stroke="none" stroke-width="1" fill="none" fill-rule="evenodd">
        <g id="Oval-1-+-Oval-1-Copy-+-Oval-1-Copy-2" transform="translate(21.658537, 6.000000)" stroke="#979797" fill="#FF2600">
            <path d="M6.60975605,8.02371685 C6.66534019,6.47723514 5.24590357,5.22356401 3.43935562,5.22356401 C1.63280767,5.22356401 0.0947976678,6.47723514 0.0041141328,8.02371685 C-0.0865694022,9.57019856 1.33286722,10.8238697 3.17451456,10.8238697 C5.01616191,10.8238697 6.55417191,9.57019856 6.60975605,8.02371685 Z" id="Oval-1"></path>
            <path d="M22.7980359,8.02371685 C22.7785414,6.47723514 21.2982415,5.22356401 19.4916935,5.22356401 C17.6851456,5.22356401 16.2079989,6.47723514 16.192394,8.02371685 C16.1767891,9.57019856 17.6570891,10.8238697 19.4987364,10.8238697 C21.3403838,10.8238697 22.8175305,9.57019856 22.7980359,8.02371685 Z" id="Oval-1-Copy"></path>
            <path d="M14.1630496,2.37938017 C14.1821345,1.08109923 12.7577239,0.0286345759 10.9815394,0.0286345759 C9.20535493,0.0286345759 7.72143171,1.08109923 7.66710413,2.37938017 C7.61277654,3.67766111 9.03718715,4.73012577 10.8486143,4.73012577 C12.6600414,4.73012577 14.1439646,3.67766111 14.1630496,2.37938017 Z" id="Oval-1-Copy-2"></path>
        </g>
        <text id="YodaCom" stroke="#A4BAA6" stroke-width="2" font-family="MicrosoftHimalaya, Microsoft Himalaya" font-size="64" font-weight="normal" letter-spacing="3" fill="#A4BAA6">
            <tspan x="19" y="52.4607752">YodaCom</tspan>
        </text>
    </g>
</svg>